<svg height="1em" width="1em" xmlns="http://www.w3.org/2000/svg" xmlns:xlink="http://www.w3.org/1999/xlink" viewBox="0 0 28 28"><g fill="none"><path d="M14 20a2.5 2.5 0 1 1 0 5a2.5 2.5 0 0 1 0-5zm8.5 0a2.5 2.5 0 1 1 0 5a2.5 2.5 0 0 1 0-5zm-17 0a2.5 2.5 0 1 1 0 5a2.5 2.5 0 0 1 0-5zm8.5-8.5a2.5 2.5 0 1 1 0 5a2.5 2.5 0 0 1 0-5zm8.5 0a2.5 2.5 0 1 1 0 5a2.5 2.5 0 0 1 0-5zm-17 0a2.5 2.5 0 1 1 0 5a2.5 2.5 0 0 1 0-5zM14 3a2.5 2.5 0 1 1 0 5a2.5 2.5 0 0 1 0-5zm8.5 0a2.5 2.5 0 1 1 0 5a2.5 2.5 0 0 1 0-5zm-17 0a2.5 2.5 0 1 1 0 5a2.5 2.5 0 0 1 0-5z" fill="currentColor"></path></g></svg>