<?xml version="1.0" encoding="UTF-8"?>
<svg id="_图层_1" data-name="图层 1" xmlns="http://www.w3.org/2000/svg" viewBox="0 0 283.46 283.46">
  <defs>
    <style>
      .cls-1 {
        fill: #38bdf8;
      }
    </style>
  </defs>
  <g>
    <path class="cls-1" d="m94.11,129.62h-4.18c-1.44,0-2.66,1.06-2.85,2.49l-2.15,15.76c-.24,1.73,1.11,3.27,2.85,3.27h4.18c1.44,0,2.66-1.06,2.85-2.49l2.15-15.76c.24-1.73-1.11-3.27-2.85-3.27Z"/>
    <path class="cls-1" d="m140.32,117.99c1.41,1.85,2.03,4.19,1.72,6.49l-3.93,29.26h-11.64l-2.97-2.89-1.45,10.19h24.11c1.47,0,2.71-.48,3.73-1.45,1.01-.96,1.72-2.18,2.13-3.65l5.1-37.96h-16.81Z"/>
    <path class="cls-1" d="m192.22,125.29l.76-7.3h-31.23l-5.1,37.96c-.2.71-.23,1.38-.08,2.02.15.63.44,1.18.87,1.64.43.46.95.81,1.56,1.07.61.25,1.27.38,1.98.38h26.13l1.44-10.19-3.65,2.89h-13.66l3.65-28.45h17.31Z"/>
    <path class="cls-1" d="m65.14,118.46l-6.34.19c2.67,2.71,3.98,6.48,3.56,10.26l-3.57,32.03h13.23v-.03h3.4c-1.64-2.35-2.45-5.16-2.34-8l1.82-13.83,2.04-14.99c.25-1.84,1.08-3.56,2.36-4.91l1.17-1.23-15.33.52h0Z"/>
    <path class="cls-1" d="m123.07,125.97c.48-3.29,2.35-6.21,5.13-8.03h-21.14c1.41,1.85,2.04,4.18,1.74,6.48l-3.66,28.84c-.33,2.63-1.46,5.1-3.23,7.07l-.51.57h3.02v.03s13.23,0,13.23,0v-.03h.33l5.08-34.94Z"/>
  </g>
  <path class="cls-1" d="m170.97,220.6c-.79,0-1.59-.15-2.35-.46l-79.51-31.75c-1.61-.64-2.9-1.93-3.53-3.54-.64-1.61-.58-3.43.15-5l9.17-19.69-5.4,21.45c-.25.55-.27,1.15-.05,1.71.22.56.65.99,1.21,1.21l79.51,31.75c.55.22,1.15.21,1.69-.04.54-.24.95-.69,1.15-1.24l47.38-132.14c.23-.64.15-1.34-.22-1.91-.37-.57-.98-.93-1.66-.98l-32.98-2.33.29-4.15,32.98,2.33c1.99.14,3.76,1.18,4.85,2.85,1.09,1.67,1.33,3.71.66,5.59l-47.38,132.14c-.58,1.63-1.78,2.92-3.36,3.63-.83.37-1.71.56-2.59.56Z"/>
  <path class="cls-1" d="m114.9,117.22l20.13-43.22c1.1-2.36,3.58-3.82,6.18-3.64l28.96,2.04-.29,4.15-28.96-2.04c-.89-.06-1.74.44-2.12,1.25l-23.9,41.47Z"/>
  <path class="cls-1" d="m198.64,92.87l-49.6-6.48,3.9-5.62c2.16-3.12,5.85-4.88,9.64-4.6,2.77.21,5.31-1.4,6.3-4l.94-2.46c1.74-4.53,6.32-7.32,11.15-6.79l.12.02c2.41.42,4.54,1.84,5.84,3.92,1.3,2.07,1.65,4.61.97,6.96l-.07.25c-.24.84-.13,1.73.32,2.48.45.76,1.17,1.28,2.03,1.47,4.47.98,9.22,6.74,8.66,12.7l-.2,2.15Zm-42.3-9.72l38.18,4.99c-.73-3-3.31-5.63-5.24-6.05-1.97-.43-3.68-1.67-4.71-3.4-1.03-1.73-1.3-3.83-.74-5.76l.07-.25c.36-1.23.18-2.51-.5-3.6-.67-1.07-1.72-1.79-2.96-2.02-2.92-.3-5.69,1.4-6.74,4.15l-.94,2.46c-1.66,4.32-5.88,7-10.49,6.65-2.32-.17-4.59.91-5.92,2.82h0Z"/>
  <ellipse class="cls-1" cx="178.71" cy="73.26" rx="3.9" ry="3.28" transform="translate(66.54 230.49) rotate(-76.79)"/>
</svg>